# xmcd
#
# Track frame offsets:
#	150
#	40437
#	81370
#	125502
#	145030
#	170632
#	203627
#	235682
#	271882
#
# Disc length: 4085 seconds
#
# Revision: 4
# Processed by: cddbd v1.5.2PL0 Copyright (c) Steve Scherf et al.
# Submitted via: EasyCDDAExtractor 15.3.0.1
#
DISCID=7a0ff309
DTITLE=Cher - A Different Kind Of Love Song, The Music's No Good Without You
DYEAR=2002
DGENRE=Pop
TTITLE0=A Different Kind Of Love Song (Rosabel Attitude Vocal)
TTITLE1=A Different Kind Of Love Song (Murk Main Mix)
TTITLE2=A Different Kind Of Love Song (Ralphi's Alternative Vox)
TTITLE3=A Different Kind Of Love Song (Rodney Jerkins Main Mix (Faster))
TTITLE4=A Different Kind Of Love Song (Johnny Rocks Mix Show Edit)
TTITLE5=A Different Kind Of Love Song (Lenny B.'s Different Kind Of Club Mix)
TTITLE6=A Different Kind Of Love Song (Craig J Classic Love Mix)
TTITLE7=The Music's No Good Without You (Almighty 12'' Mix)
TTITLE8=The Music's No Good Without You (Walter Taieb Mix)
EXTD=
EXTT0=
EXTT1=
EXTT2=
EXTT3=
EXTT4=
EXTT5=
EXTT6=
EXTT7=
EXTT8=
PLAYORDER=
